<?xml version="1.0" standalone="no"?>
<svg viewBox="0 0 200 200" xmlns="http://www.w3.org/2000/svg">
  <path fill="#FF0066" d="M37,-64.1C46.7,-58.4,52.6,-46.1,56.5,-34.3C60.4,-22.5,62.4,-11.3,63.9,0.9C65.5,13,66.6,26.1,62,36.6C57.4,47.2,47,55.3,35.7,65.4C24.4,75.5,12.2,87.5,0.5,86.7C-11.2,85.8,-22.5,72.1,-36.8,63.8C-51.1,55.5,-68.5,52.5,-73.8,42.8C-79.1,33,-72.4,16.5,-71.2,0.7C-70,-15.1,-74.2,-30.2,-69.7,-41.3C-65.1,-52.4,-51.7,-59.4,-38.7,-63.2C-25.6,-67,-12.8,-67.6,0.4,-68.3C13.6,-69,27.2,-69.9,37,-64.1Z" transform="translate(100 100)" />
</svg>
